<svg xmlns="http://www.w3.org/2000/svg" width="327.186" height="45.497" viewBox="0 0 327.186 45.497">
  <g id="pi-16" transform="translate(-336.994 -460.31)">
    <path id="Path_1" data-name="Path 1" d="M339.031,488.758a14.781,14.781,0,0,1,5.484-6.021,14.6,14.6,0,0,1,7.741-2.11,13.6,13.6,0,0,1,6.536,1.508,13.262,13.262,0,0,1,4.486,3.8v-4.757h8.494v33.37h-8.494v-4.882a12.476,12.476,0,0,1-4.486,3.884,13.722,13.722,0,0,1-6.607,1.535,14.212,14.212,0,0,1-7.681-2.17,15.188,15.188,0,0,1-5.484-6.119A19.636,19.636,0,0,1,337,497.735,19.332,19.332,0,0,1,339.031,488.758Zm23.042,3.824a8.489,8.489,0,0,0-3.255-3.368,8.679,8.679,0,0,0-4.4-1.177,8.538,8.538,0,0,0-4.339,1.145,8.679,8.679,0,0,0-3.222,3.341,10.48,10.48,0,0,0-1.231,5.213,10.816,10.816,0,0,0,1.231,5.272,8.917,8.917,0,0,0,3.255,3.461,8.256,8.256,0,0,0,4.307,1.2,8.717,8.717,0,0,0,4.4-1.172,8.542,8.542,0,0,0,3.255-3.374,12.145,12.145,0,0,0,0-10.545Z" transform="translate(0 -9.295)" fill="#f2f2f2"/>
    <path id="Path_2" data-name="Path 2" d="M429.251,473.156a13.816,13.816,0,0,1,6.536-1.508,14.613,14.613,0,0,1,7.74,2.11,14.83,14.83,0,0,1,5.479,5.994,19.262,19.262,0,0,1,2.018,9,19.637,19.637,0,0,1-2.018,9.064,15.227,15.227,0,0,1-5.479,6.119,14.32,14.32,0,0,1-7.74,2.17,13.783,13.783,0,0,1-6.536-1.475,12.714,12.714,0,0,1-4.491-3.8v4.757H416.33V461h8.429v15.844A11.423,11.423,0,0,1,429.251,473.156Zm11.933,10.388a8.576,8.576,0,0,0-3.255-3.341,8.679,8.679,0,0,0-4.367-1.145,8.381,8.381,0,0,0-4.307,1.177,8.711,8.711,0,0,0-3.255,3.4,11.716,11.716,0,0,0,0,10.48,8.76,8.76,0,0,0,3.255,3.407,8.511,8.511,0,0,0,8.679-.033,8.95,8.95,0,0,0,3.255-3.434,10.811,10.811,0,0,0,1.231-5.3,10.539,10.539,0,0,0-1.242-5.213Z" transform="translate(-36.302 -0.316)" fill="#f2f2f2"/>
    <path id="Path_3" data-name="Path 3" d="M489.635,479.779a14.553,14.553,0,0,1,13.284-8.136,14.18,14.18,0,0,1,6.205,1.416,12.389,12.389,0,0,1,4.7,3.765V461h8.554v44.577h-8.554v-4.936a11.434,11.434,0,0,1-4.4,3.976,13.773,13.773,0,0,1-6.563,1.5,14.375,14.375,0,0,1-7.713-2.17,15.14,15.14,0,0,1-5.511-6.119,19.637,19.637,0,0,1-2.018-9.064A19.332,19.332,0,0,1,489.635,479.779Zm23.042,3.824a8.467,8.467,0,0,0-3.255-3.368,8.636,8.636,0,0,0-4.394-1.177,8.537,8.537,0,0,0-4.339,1.145,8.679,8.679,0,0,0-3.222,3.341,10.479,10.479,0,0,0-1.237,5.213,10.848,10.848,0,0,0,1.237,5.272,8.918,8.918,0,0,0,3.255,3.461,8.256,8.256,0,0,0,4.307,1.2,8.678,8.678,0,0,0,4.394-1.172,8.516,8.516,0,0,0,3.255-3.374A12.145,12.145,0,0,0,512.677,483.6Z" transform="translate(-68.919 -0.316)" fill="#f2f2f2"/>
    <path id="Path_4" data-name="Path 4" d="M564.935,488.759a14.8,14.8,0,0,1,5.479-6.021,14.613,14.613,0,0,1,7.735-2.11,13.6,13.6,0,0,1,6.509,1.508,13.279,13.279,0,0,1,4.491,3.8v-4.757h8.527v33.37h-8.495v-4.882a12.539,12.539,0,0,1-4.491,3.884,13.708,13.708,0,0,1-6.6,1.535,14.212,14.212,0,0,1-7.681-2.17,15.227,15.227,0,0,1-5.479-6.119,19.636,19.636,0,0,1-2.018-9.064,19.332,19.332,0,0,1,2.018-8.972Zm23.042,3.824a8.505,8.505,0,0,0-3.255-3.368,8.679,8.679,0,0,0-4.4-1.177,8.5,8.5,0,0,0-4.339,1.145,8.63,8.63,0,0,0-3.227,3.341,10.54,10.54,0,0,0-1.231,5.213,10.877,10.877,0,0,0,1.231,5.272,8.918,8.918,0,0,0,3.255,3.461,8.272,8.272,0,0,0,4.307,1.2,8.717,8.717,0,0,0,4.4-1.172,8.554,8.554,0,0,0,3.255-3.374,12.145,12.145,0,0,0,0-10.545Z" transform="translate(-103.374 -9.295)" fill="#f2f2f2"/>
    <path id="Path_5" data-name="Path 5" d="M650.645,461v44.577H642.21V461Z" transform="translate(-139.658 -0.316)" fill="#f2f2f2"/>
    <path id="Path_6" data-name="Path 6" d="M681.515,461v44.577H673.08V461Z" transform="translate(-153.783 -0.316)" fill="#f2f2f2"/>
    <path id="Path_7" data-name="Path 7" d="M701.992,488.758a14.8,14.8,0,0,1,5.479-6.021,14.612,14.612,0,0,1,7.74-2.11,13.6,13.6,0,0,1,6.536,1.508,13.278,13.278,0,0,1,4.491,3.8v-4.757h8.473v33.37h-8.473v-4.882a12.54,12.54,0,0,1-4.491,3.884,13.708,13.708,0,0,1-6.6,1.535,14.211,14.211,0,0,1-7.681-2.17,15.226,15.226,0,0,1-5.479-6.119,19.636,19.636,0,0,1-2-9.059A19.333,19.333,0,0,1,701.992,488.758Zm23.042,3.824a8.506,8.506,0,0,0-3.255-3.368,8.679,8.679,0,0,0-4.4-1.177,8.467,8.467,0,0,0-7.556,4.486,10.481,10.481,0,0,0-1.237,5.213,10.848,10.848,0,0,0,1.237,5.272,8.864,8.864,0,0,0,3.255,3.461,8.272,8.272,0,0,0,4.307,1.2,8.717,8.717,0,0,0,4.4-1.172,8.554,8.554,0,0,0,3.255-3.374,12.145,12.145,0,0,0,0-10.545Z" transform="translate(-166.097 -9.295)" fill="#f2f2f2"/>
    <path id="Path_8" data-name="Path 8" d="M804.793,473.362a11.434,11.434,0,0,1,4.605,4.882,16.723,16.723,0,0,1,1.66,7.74v19.576h-8.435V487.118A8.629,8.629,0,0,0,800.633,481a7.077,7.077,0,0,0-5.424-2.137A7.2,7.2,0,0,0,789.7,481a8.6,8.6,0,0,0-2.018,6.113v18.443H779.25V461h8.435v15.362a11.027,11.027,0,0,1,4.339-3.4,14.374,14.374,0,0,1,6.026-1.237,13.593,13.593,0,0,1,6.742,1.638Z" transform="translate(-202.363 -0.316)" fill="#f2f2f2"/>
    <path id="Path_9" data-name="Path 9" d="M883.433,492.281H868.18l39.055-31.971Z" transform="translate(-243.055)" fill="red"/>
    <path id="Path_10" data-name="Path 10" d="M913.661,499.343l-13.821,6.444,21.882-45.477Z" transform="translate(-257.542)" fill="red"/>
    <path id="Path_11" data-name="Path 11" d="M866.079,481.628,851.84,476.16l47.918-15.85Z" transform="translate(-235.578)" fill="red"/>
  </g>
</svg>
